<svg width="357" height="221" viewBox="0 0 357 221" fill="none" xmlns="http://www.w3.org/2000/svg">
<path d="M126.538 141.5C125.938 141.1 125.271 140.1 124.538 138.5C123.871 136.9 123.538 134.4 123.538 131C123.538 128.8 123.971 126.567 124.838 124.3C125.705 121.967 126.905 119.833 128.438 117.9C129.971 115.9 131.771 114.3 133.838 113.1C135.905 111.9 138.138 111.3 140.538 111.3C142.538 111.3 144.038 111.933 145.038 113.2C146.038 114.4 146.538 115.767 146.538 117.3C146.538 119.033 145.805 121 144.338 123.2C142.871 125.333 140.671 127.167 137.738 128.7C134.871 130.233 131.271 131 126.938 131C124.471 131 122.071 130.667 119.738 130C117.471 129.267 115.605 128.1 114.138 126.5C112.671 124.9 111.938 122.8 111.938 120.2C111.938 116.8 113.005 113.7 115.138 110.9C117.338 108.1 120.171 105.867 123.638 104.2C127.171 102.533 130.905 101.7 134.838 101.7C135.971 101.7 137.438 101.833 139.238 102.1C141.038 102.3 142.638 102.7 144.038 103.3C145.438 103.9 146.138 104.733 146.138 105.8C146.138 106.267 145.971 106.6 145.638 106.8C145.305 106.933 144.905 107 144.438 107C142.705 107 141.005 106.533 139.338 105.6C137.671 104.6 136.271 103.3 135.138 101.7C134.071 100.1 133.538 98.3667 133.538 96.5C133.538 92.8333 134.638 89.5333 136.838 86.6C139.105 83.6 142.038 81.2333 145.638 79.5C149.305 77.7667 153.238 76.9 157.438 76.9C161.705 76.9 164.905 77.6667 167.038 79.2C169.171 80.6667 170.238 82.7 170.238 85.3C170.238 87.5667 169.105 89.8 166.838 92C164.638 94.2 161.605 96 157.738 97.4C153.871 98.8 149.505 99.5 144.638 99.5C139.371 99.5 135.071 99 131.738 98C128.405 97 125.805 95.8 123.938 94.4C122.071 92.9333 120.738 91.5667 119.938 90.3C119.205 88.9667 118.738 88.0333 118.538 87.5C118.338 86.9667 118.338 86.6667 118.538 86.6C118.738 86.4667 119.005 86.5667 119.338 86.9C119.538 87.2333 119.938 88 120.538 89.2C121.205 90.4 122.305 91.7 123.838 93.1C125.438 94.5 127.771 95.7333 130.838 96.8C133.905 97.8 137.971 98.3 143.038 98.3C145.838 98.3 148.738 97.9667 151.738 97.3C154.805 96.6333 157.605 95.7 160.138 94.5C162.738 93.3 164.838 91.9 166.438 90.3C168.038 88.6333 168.838 86.8333 168.838 84.9C168.838 82.9 168.005 81.2333 166.338 79.9C164.671 78.5667 162.071 77.9 158.538 77.9C155.538 77.9 152.738 78.6 150.138 80C147.538 81.4 145.238 83.1667 143.238 85.3C141.305 87.3667 139.771 89.5 138.638 91.7C137.505 93.8333 136.938 95.6333 136.938 97.1C136.938 98.5667 137.305 100 138.038 101.4C138.838 102.8 139.805 103.933 140.938 104.8C142.138 105.667 143.338 106.1 144.538 106.1C145.005 106.1 145.238 105.933 145.238 105.6C145.238 105.333 144.938 105 144.338 104.6C143.738 104.2 142.905 103.867 141.838 103.6C140.838 103.267 139.671 103.1 138.338 103.1C135.671 103.1 133.038 103.667 130.438 104.8C127.838 105.933 125.438 107.433 123.238 109.3C121.105 111.1 119.371 113.1 118.038 115.3C116.771 117.5 116.138 119.667 116.138 121.8C116.138 123.4 116.505 124.8 117.238 126C118.038 127.2 119.171 128.167 120.638 128.9C122.105 129.567 123.938 129.9 126.138 129.9C128.338 129.9 130.538 129.433 132.738 128.5C134.938 127.5 136.938 126.233 138.738 124.7C140.605 123.167 142.071 121.6 143.138 120C144.271 118.333 144.838 116.867 144.838 115.6C144.838 114.6 144.471 113.8 143.738 113.2C143.005 112.533 141.971 112.2 140.638 112.2C138.438 112.2 136.371 112.8 134.438 114C132.505 115.133 130.771 116.667 129.238 118.6C127.771 120.467 126.605 122.567 125.738 124.9C124.871 127.167 124.471 129.433 124.538 131.7C124.605 133.767 124.838 135.6 125.238 137.2C125.705 138.867 126.338 140.133 127.138 141C127.271 141.2 127.305 141.4 127.238 141.6C127.171 141.8 126.938 141.767 126.538 141.5ZM159.464 130.9C157.598 130.9 156.298 130.467 155.564 129.6C154.831 128.667 154.464 127.233 154.464 125.3C154.464 123.3 155.131 121.1 156.464 118.7C157.798 116.3 159.564 114.033 161.764 111.9C164.031 109.7 166.564 107.9 169.364 106.5C172.164 105.1 175.031 104.4 177.964 104.4C179.564 104.4 180.664 104.733 181.264 105.4C181.931 106 182.264 106.733 182.264 107.6C182.331 108.467 182.131 109.2 181.664 109.8C181.664 109.8 181.464 110 181.064 110.4C180.731 110.8 180.398 111.233 180.064 111.7C179.731 112.1 179.564 112.3 179.564 112.3C180.898 109.967 181.364 108.3 180.964 107.3C180.631 106.233 179.698 105.7 178.164 105.7C177.031 105.7 175.598 106.233 173.864 107.3C172.198 108.367 170.398 109.767 168.464 111.5C166.598 113.233 164.831 115.1 163.164 117.1C161.498 119.1 160.131 121.033 159.064 122.9C158.064 124.767 157.564 126.367 157.564 127.7C157.564 128.367 157.798 128.867 158.264 129.2C158.731 129.533 159.331 129.7 160.064 129.7C161.064 129.7 162.231 129.3 163.564 128.5C164.898 127.7 166.264 126.7 167.664 125.5C169.064 124.3 170.364 123.1 171.564 121.9C172.764 120.7 173.731 119.667 174.464 118.8C175.264 117.933 175.698 117.433 175.764 117.3C176.031 116.967 176.798 115.867 178.064 114C179.398 112.133 181.064 109.8 183.064 107C185.064 104.2 187.198 101.167 189.464 97.9C191.798 94.5667 194.098 91.2667 196.364 88C198.631 84.6667 200.731 81.6333 202.664 78.9C204.598 76.1667 206.164 73.9333 207.364 72.2C208.564 70.4667 209.231 69.5333 209.364 69.4C210.031 69.7333 210.664 69.9667 211.264 70.1C211.931 70.1667 212.931 70.1333 214.264 70C214.131 70.2 213.331 71.3333 211.864 73.4C210.398 75.4 208.498 78.0333 206.164 81.3C203.831 84.5667 201.298 88.1333 198.564 92C195.831 95.8667 193.064 99.7333 190.264 103.6C187.531 107.467 184.998 111.033 182.664 114.3C180.331 117.567 178.431 120.233 176.964 122.3C175.498 124.3 174.698 125.4 174.564 125.6C174.298 126 173.998 126.533 173.664 127.2C173.398 127.8 173.264 128.367 173.264 128.9C173.264 129.433 173.531 129.7 174.064 129.7C176.064 129.7 178.031 129.133 179.964 128C181.964 126.8 183.831 125.367 185.564 123.7C187.364 122.033 188.931 120.433 190.264 118.9C191.598 117.3 192.664 116.067 193.464 115.2L194.264 115.8C193.531 116.733 192.431 118.033 190.964 119.7C189.498 121.367 187.798 123.067 185.864 124.8C183.998 126.467 182.031 127.9 179.964 129.1C177.898 130.3 175.898 130.9 173.964 130.9C172.698 130.9 171.731 130.667 171.064 130.2C170.398 129.8 170.064 129.233 170.064 128.5C170.064 127.633 170.364 126.667 170.964 125.6C171.631 124.533 172.331 123.533 173.064 122.6C173.798 121.6 174.331 120.9 174.664 120.5C174.664 120.5 174.598 120.5 174.464 120.5C174.398 120.433 174.364 120.4 174.364 120.4C174.298 120.467 173.764 121.033 172.764 122.1C171.831 123.167 170.598 124.4 169.064 125.8C167.598 127.133 166.031 128.333 164.364 129.4C162.698 130.4 161.064 130.9 159.464 130.9ZM220.328 104.7C220.994 104.767 221.861 104.867 222.928 105C224.061 105.067 225.161 105 226.228 104.8C223.761 107.467 221.294 110.1 218.828 112.7C216.428 115.233 214.228 117.633 212.228 119.9C210.228 122.1 208.594 123.967 207.328 125.5C206.128 127.033 205.528 128.1 205.528 128.7C205.528 129.167 205.628 129.467 205.828 129.6C206.094 129.733 206.428 129.8 206.828 129.8C207.894 129.8 209.361 129.333 211.228 128.4C213.094 127.467 215.128 126.267 217.328 124.8C219.528 123.267 221.628 121.633 223.628 119.9C225.694 118.1 227.394 116.333 228.728 114.6C230.128 112.867 230.961 111.3 231.228 109.9C231.428 108.7 231.528 107.467 231.528 106.2C231.528 105.667 231.728 105.033 232.128 104.3C232.594 103.567 233.361 103.2 234.428 103.2C235.161 103.2 235.728 103.4 236.128 103.8C236.528 104.2 236.728 104.867 236.728 105.8C236.728 107.4 235.928 109.3 234.328 111.5C232.794 113.633 230.794 115.833 228.328 118.1C225.861 120.367 223.228 122.467 220.428 124.4C217.628 126.333 214.961 127.9 212.428 129.1C209.961 130.3 207.928 130.9 206.328 130.9C205.061 130.9 204.261 130.6 203.928 130C203.661 129.467 203.528 128.7 203.528 127.7C203.528 126.167 204.161 124.333 205.428 122.2C206.761 120 208.361 117.8 210.228 115.6C212.094 113.333 213.961 111.233 215.828 109.3C217.694 107.367 219.194 105.833 220.328 104.7ZM226.828 117.4L227.628 118C226.961 118.6 226.394 119.233 225.928 119.9C225.528 120.5 225.328 121.167 225.328 121.9C225.328 122.967 225.961 123.5 227.228 123.5C228.428 123.5 229.694 123 231.028 122C232.428 121 233.794 119.833 235.128 118.5C236.461 117.167 237.594 116.067 238.528 115.2L239.328 115.8C238.394 116.8 237.228 118 235.828 119.4C234.494 120.733 233.061 121.9 231.528 122.9C229.994 123.9 228.561 124.4 227.228 124.4C225.294 124.4 224.328 123.6 224.328 122C224.328 121.067 224.494 120.333 224.828 119.8C225.161 119.2 225.828 118.4 226.828 117.4ZM203.528 104.7C203.928 104.833 204.728 104.933 205.928 105C207.128 105.067 208.294 105 209.428 104.8C208.361 106 206.961 107.5 205.228 109.3C203.561 111.033 201.761 112.933 199.828 115C197.894 117 196.061 118.967 194.328 120.9C192.594 122.767 191.194 124.433 190.128 125.9C188.994 127.367 188.428 128.4 188.428 129C188.428 129.533 188.761 129.8 189.428 129.8C190.961 129.8 192.994 129.067 195.528 127.6C198.061 126.067 200.761 124.133 203.628 121.8C206.494 119.4 209.094 116.867 211.428 114.2C211.428 114.267 211.461 114.4 211.528 114.6C211.661 114.733 211.594 115.067 211.328 115.6C211.061 116.067 210.394 116.867 209.328 118C207.394 120.067 205.194 122.1 202.728 124.1C200.328 126.033 197.928 127.667 195.528 129C193.194 130.267 191.094 130.9 189.228 130.9C187.561 130.9 186.728 130.067 186.728 128.4C186.728 126.867 187.261 125.133 188.328 123.2C189.328 121.2 190.594 119.2 192.128 117.2C193.661 115.133 195.228 113.233 196.828 111.5C198.494 109.7 199.928 108.2 201.128 107C202.394 105.733 203.194 104.967 203.528 104.7ZM236.35 130.9C235.416 130.9 234.383 130.633 233.25 130.1C232.05 129.633 231.45 128.833 231.45 127.7C231.45 126.3 232.083 124.533 233.35 122.4C234.616 120.267 236.183 118.067 238.05 115.8C239.85 113.533 241.616 111.4 243.35 109.4C245.083 107.4 246.383 105.833 247.25 104.7C247.983 104.767 248.85 104.8 249.85 104.8C250.916 104.8 251.85 104.767 252.65 104.7C251.716 105.833 250.483 107.267 248.95 109C247.483 110.733 245.916 112.6 244.25 114.6C242.65 116.533 241.083 118.433 239.55 120.3C238.083 122.167 236.883 123.833 235.95 125.3C235.016 126.767 234.55 127.833 234.55 128.5C234.55 128.967 234.75 129.3 235.15 129.5C235.55 129.7 236.216 129.8 237.15 129.8C238.75 129.8 240.516 129.2 242.45 128C244.45 126.733 246.383 125.233 248.25 123.5C250.116 121.767 251.783 120.133 253.25 118.6C254.716 117 255.75 115.833 256.35 115.1L257.15 115.8C256.55 116.467 255.516 117.633 254.05 119.3C252.65 120.9 250.95 122.6 248.95 124.4C247.016 126.2 244.95 127.733 242.75 129C240.616 130.267 238.483 130.9 236.35 130.9ZM256.35 97.1C255.55 97.1 254.95 96.8667 254.55 96.4C254.15 95.8667 253.95 95.2667 253.95 94.6C253.95 93.8667 254.35 93.1 255.15 92.3C255.95 91.5 256.783 91.1 257.65 91.1C258.583 91.1 259.25 91.3667 259.65 91.9C260.05 92.3667 260.25 92.8333 260.25 93.3C260.25 94.3 259.85 95.2 259.05 96C258.25 96.7333 257.35 97.1 256.35 97.1ZM277.321 130.9C273.787 130.9 272.021 129.867 272.021 127.8C272.021 126.467 272.454 125.033 273.321 123.5C274.254 121.967 275.387 120.433 276.721 118.9C278.054 117.3 279.387 115.733 280.721 114.2C282.121 112.667 283.254 111.267 284.121 110C285.054 108.667 285.521 107.533 285.521 106.6C285.521 106.267 285.354 106 285.021 105.8C284.754 105.533 284.354 105.4 283.821 105.4C283.021 105.4 281.887 105.8 280.421 106.6C279.021 107.4 277.221 108.767 275.021 110.7C272.887 112.567 270.354 115.1 267.421 118.3C264.487 121.433 261.121 125.367 257.321 130.1C256.721 129.967 255.821 129.9 254.621 129.9C253.421 129.9 252.387 130.033 251.521 130.3C253.454 127.5 255.354 124.767 257.221 122.1C259.087 119.433 260.787 117 262.321 114.8C263.921 112.6 265.187 110.8 266.121 109.4C267.054 107.933 267.521 107.033 267.521 106.7C267.521 106.1 267.221 105.8 266.621 105.8C265.954 105.8 265.121 106.333 264.121 107.4C263.121 108.4 262.021 109.7 260.821 111.3C259.621 112.833 258.387 114.4 257.121 116L256.221 115.4C257.554 113.867 258.854 112.267 260.121 110.6C261.387 108.933 262.687 107.5 264.021 106.3C265.354 105.1 266.754 104.5 268.221 104.5C268.954 104.5 269.621 104.7 270.221 105.1C270.887 105.433 271.221 106 271.221 106.8C271.221 107.533 270.921 108.433 270.321 109.5C269.787 110.5 269.054 111.667 268.121 113C267.187 114.267 266.121 115.7 264.921 117.3C263.787 118.833 262.587 120.5 261.321 122.3L261.421 122.9C264.954 119.033 267.921 115.9 270.321 113.5C272.787 111.1 274.821 109.267 276.421 108C278.087 106.667 279.521 105.767 280.721 105.3C281.987 104.767 283.187 104.5 284.321 104.5C285.854 104.5 286.954 104.833 287.621 105.5C288.287 106.1 288.621 106.933 288.621 108C288.621 109.6 288.154 111.3 287.221 113.1C286.287 114.833 285.121 116.567 283.721 118.3C282.387 119.967 281.021 121.533 279.621 123C278.287 124.4 277.154 125.6 276.221 126.6C275.287 127.6 274.821 128.267 274.821 128.6C274.821 129 274.921 129.3 275.121 129.5C275.387 129.7 276.021 129.8 277.021 129.8C279.487 129.8 281.821 129.033 284.021 127.5C286.287 125.967 288.454 124.1 290.521 121.9C292.587 119.633 294.521 117.4 296.321 115.2L297.121 115.9C295.321 118.033 293.354 120.267 291.221 122.6C289.087 124.933 286.854 126.9 284.521 128.5C282.187 130.1 279.787 130.9 277.321 130.9Z" fill="#7F9B7D"/>
<path d="M134.891 214.8C132.491 214.8 130.558 214.367 129.091 213.5C127.558 212.567 126.791 211.267 126.791 209.6C126.791 208.733 127.124 208 127.791 207.4C128.391 206.733 129.224 206.4 130.291 206.4C131.624 206.4 132.291 206.933 132.291 208C132.291 208.8 132.058 209.333 131.591 209.6C131.058 209.867 130.624 210 130.291 210C129.624 210 129.158 209.933 128.891 209.8C128.558 209.667 128.391 209.6 128.391 209.6C128.391 210.067 128.524 210.633 128.791 211.3C129.058 211.9 129.591 212.467 130.391 213C131.191 213.467 132.391 213.7 133.991 213.7C136.724 213.7 139.358 212.933 141.891 211.4C144.424 209.867 146.858 207.867 149.191 205.4C151.591 202.867 153.958 200.133 156.291 197.2C158.624 194.2 160.991 191.267 163.391 188.4C164.524 187.067 166.024 185.433 167.891 183.5C169.824 181.567 171.924 179.533 174.191 177.4C176.458 175.267 178.691 173.233 180.891 171.3C183.091 169.367 185.024 167.733 186.691 166.4C187.224 166 187.658 165.733 187.991 165.6C188.324 165.467 188.424 165.567 188.291 165.9C188.224 166.1 187.458 166.733 185.991 167.8C184.591 168.867 182.824 170.1 180.691 171.5C178.558 172.833 176.324 174 173.991 175C171.724 176 169.658 176.5 167.791 176.5C166.658 176.5 165.691 176.267 164.891 175.8C164.158 175.267 163.791 174.467 163.791 173.4C163.791 171.867 164.158 170.6 164.891 169.6C165.691 168.533 166.558 167.667 167.491 167C168.491 166.333 169.358 165.733 170.091 165.2C170.891 164.667 171.291 164.1 171.291 163.5C171.291 162.567 170.891 161.933 170.091 161.6C169.291 161.267 168.291 161.1 167.091 161.1C164.491 161.1 162.091 161.7 159.891 162.9C157.691 164.033 155.758 165.467 154.091 167.2C152.491 168.867 151.224 170.567 150.291 172.3C149.358 174.033 148.824 175.467 148.691 176.6C148.624 177.2 148.424 177.433 148.091 177.3C147.824 177.1 147.724 176.767 147.791 176.3C147.858 175.367 148.324 174.033 149.191 172.3C150.058 170.567 151.291 168.767 152.891 166.9C154.558 164.967 156.558 163.367 158.891 162.1C161.291 160.767 164.024 160.1 167.091 160.1C168.758 160.1 170.224 160.4 171.491 161C172.824 161.533 173.491 162.567 173.491 164.1C173.491 165.567 173.091 166.867 172.291 168C171.491 169.133 170.558 170.1 169.491 170.9C168.424 171.633 167.491 172.267 166.691 172.8C165.891 173.333 165.491 173.8 165.491 174.2C165.491 174.667 165.658 175 165.991 175.2C166.391 175.333 167.158 175.4 168.291 175.4C170.158 175.4 172.158 174.9 174.291 173.9C176.424 172.9 178.591 171.633 180.791 170.1C182.991 168.567 185.124 167 187.191 165.4C189.324 163.8 191.258 162.4 192.991 161.2C194.791 159.933 196.291 159.1 197.491 158.7C197.824 158.567 198.124 158.6 198.391 158.8C198.724 159 198.491 159.267 197.691 159.6C195.491 160.467 193.091 162.133 190.491 164.6C187.891 167 185.124 169.9 182.191 173.3C179.324 176.633 176.358 180.2 173.291 184C170.224 187.733 167.058 191.433 163.791 195.1C160.591 198.7 157.358 202 154.091 205C150.891 207.933 147.658 210.3 144.391 212.1C141.191 213.9 138.024 214.8 134.891 214.8ZM221.191 166.8C221.191 166.267 221.491 165.8 222.091 165.4C222.691 164.933 223.258 164.7 223.791 164.7C224.258 164.7 224.658 164.767 224.991 164.9C225.391 165.033 225.591 165.1 225.591 165.1C225.924 164.367 225.758 163.5 225.091 162.5C224.491 161.433 223.391 160.9 221.791 160.9C219.591 160.9 217.458 161.5 215.391 162.7C213.324 163.9 211.258 165.467 209.191 167.4C207.124 169.267 204.924 171.267 202.591 173.4C200.058 175.8 197.324 178.133 194.391 180.4C191.524 182.667 188.658 184.533 185.791 186C182.991 187.4 180.424 188.1 178.091 188.1C177.091 188.1 176.091 187.933 175.091 187.6C174.158 187.2 173.691 186.7 173.691 186.1C173.691 185.5 174.124 185.067 174.991 184.8C175.924 184.467 176.891 184.3 177.891 184.3C178.558 184.3 179.358 184.4 180.291 184.6C181.291 184.8 182.191 185.267 182.991 186C183.791 186.733 184.191 187.933 184.191 189.6C184.191 191.933 183.724 194.1 182.791 196.1C181.858 198.1 180.691 199.9 179.291 201.5C177.958 203.1 176.591 204.567 175.191 205.9C173.791 207.167 172.624 208.3 171.691 209.3C170.758 210.233 170.291 211.067 170.291 211.8C170.291 212.6 170.658 213.133 171.391 213.4C172.124 213.667 172.824 213.8 173.491 213.8C175.624 213.8 177.724 213.133 179.791 211.8C181.858 210.4 183.724 208.7 185.391 206.7C187.058 204.633 188.424 202.533 189.491 200.4C190.558 198.267 191.158 196.467 191.291 195C191.358 194.467 191.491 194.267 191.691 194.4C191.958 194.467 192.124 194.8 192.191 195.4C192.324 197.067 191.824 199 190.691 201.2C189.558 203.4 188.024 205.567 186.091 207.7C184.224 209.767 182.158 211.5 179.891 212.9C177.624 214.233 175.424 214.9 173.291 214.9C171.958 214.9 170.791 214.6 169.791 214C168.791 213.4 168.291 212.367 168.291 210.9C168.291 209.033 168.758 207.267 169.691 205.6C170.624 203.867 171.791 202.233 173.191 200.7C174.658 199.1 176.091 197.567 177.491 196.1C178.891 194.633 180.058 193.267 180.991 192C181.924 190.667 182.391 189.4 182.391 188.2C182.391 187.267 182.124 186.6 181.591 186.2C181.058 185.733 180.458 185.433 179.791 185.3C179.124 185.167 178.591 185.1 178.191 185.1C177.591 185.1 176.991 185.167 176.391 185.3C175.791 185.433 175.491 185.667 175.491 186C175.491 186.267 175.724 186.5 176.191 186.7C176.724 186.9 177.324 187 177.991 187C180.324 187 182.524 186.2 184.591 184.6C186.658 183 188.791 181.033 190.991 178.7C193.258 176.3 195.691 173.933 198.291 171.6C200.624 169.467 203.124 167.533 205.791 165.8C208.524 164.067 211.258 162.7 213.991 161.7C216.791 160.633 219.391 160.1 221.791 160.1C223.124 160.1 224.324 160.433 225.391 161.1C226.458 161.7 226.991 162.767 226.991 164.3C226.991 165.567 226.624 166.667 225.891 167.6C225.158 168.467 224.291 168.9 223.291 168.9C221.891 168.9 221.191 168.2 221.191 166.8ZM201.053 200.9C200.786 201.167 200.586 201.2 200.453 201C200.319 200.733 200.286 200.467 200.353 200.2C201.486 199.067 202.586 197.733 203.653 196.2C204.786 194.667 205.719 193.233 206.453 191.9C207.253 190.567 207.719 189.667 207.853 189.2C207.986 189.2 208.186 189.1 208.453 188.9C208.786 188.7 209.086 188.633 209.353 188.7C209.286 189.167 209.186 189.6 209.053 190C208.986 190.4 209.219 190.767 209.753 191.1C210.286 191.433 211.386 191.767 213.053 192.1C214.719 192.433 217.253 192.8 220.653 193.2C220.986 193.267 221.219 193.4 221.353 193.6C221.553 193.733 221.453 193.967 221.053 194.3C219.786 195.3 218.386 196.567 216.853 198.1C215.319 199.633 213.819 201.267 212.353 203C210.953 204.667 209.786 206.3 208.853 207.9C207.986 209.5 207.553 210.833 207.553 211.9C207.553 213.1 208.086 213.7 209.153 213.7C210.486 213.7 211.986 213.167 213.653 212.1C215.386 211.033 217.119 209.733 218.853 208.2C220.586 206.6 222.186 205 223.653 203.4C225.186 201.733 226.453 200.367 227.453 199.3L228.253 199.9C227.319 200.833 226.119 202.133 224.653 203.8C223.186 205.467 221.519 207.167 219.653 208.9C217.853 210.567 215.919 212 213.853 213.2C211.786 214.333 209.653 214.9 207.453 214.9C206.186 214.9 205.053 214.6 204.053 214C203.053 213.467 202.553 212.467 202.553 211C202.553 209.6 203.153 208.133 204.353 206.6C205.553 205.067 207.053 203.533 208.853 202C210.653 200.4 212.519 198.9 214.453 197.5C216.453 196.033 218.219 194.7 219.753 193.5L220.453 194.4C219.786 194.133 218.619 193.9 216.953 193.7C215.286 193.433 213.553 193.1 211.753 192.7C209.953 192.233 208.386 191.633 207.053 190.9C205.786 190.167 205.153 189.167 205.153 187.9C205.153 187.233 205.419 186.433 205.953 185.5C206.553 184.5 207.353 184 208.353 184C209.286 184 209.919 184.2 210.253 184.6C210.586 184.933 210.753 185.4 210.753 186C210.753 186.4 210.419 187.233 209.753 188.5C209.086 189.7 208.253 191.133 207.253 192.8C206.253 194.4 205.186 195.933 204.053 197.4C202.986 198.867 201.986 200.033 201.053 200.9ZM225.322 214.9C224.389 214.9 223.356 214.633 222.222 214.1C221.022 213.633 220.422 212.833 220.422 211.7C220.422 210.3 221.056 208.533 222.322 206.4C223.589 204.267 225.156 202.067 227.022 199.8C228.822 197.533 230.589 195.4 232.322 193.4C234.056 191.4 235.356 189.833 236.222 188.7C236.956 188.767 237.822 188.8 238.822 188.8C239.889 188.8 240.822 188.767 241.622 188.7C240.689 189.833 239.456 191.267 237.922 193C236.456 194.733 234.889 196.6 233.222 198.6C231.622 200.533 230.056 202.433 228.522 204.3C227.056 206.167 225.856 207.833 224.922 209.3C223.989 210.767 223.522 211.833 223.522 212.5C223.522 212.967 223.722 213.3 224.122 213.5C224.522 213.7 225.189 213.8 226.122 213.8C227.722 213.8 229.489 213.2 231.422 212C233.422 210.733 235.356 209.233 237.222 207.5C239.089 205.767 240.756 204.133 242.222 202.6C243.689 201 244.722 199.833 245.322 199.1L246.122 199.8C245.522 200.467 244.489 201.633 243.022 203.3C241.622 204.9 239.922 206.6 237.922 208.4C235.989 210.2 233.922 211.733 231.722 213C229.589 214.267 227.456 214.9 225.322 214.9ZM245.322 181.1C244.522 181.1 243.922 180.867 243.522 180.4C243.122 179.867 242.922 179.267 242.922 178.6C242.922 177.867 243.322 177.1 244.122 176.3C244.922 175.5 245.756 175.1 246.622 175.1C247.556 175.1 248.222 175.367 248.622 175.9C249.022 176.367 249.222 176.833 249.222 177.3C249.222 178.3 248.822 179.2 248.022 180C247.222 180.733 246.322 181.1 245.322 181.1ZM241.993 216.3C239.66 216.3 237.893 215.867 236.693 215C235.493 214.133 234.893 212.967 234.893 211.5C234.893 210.433 235.26 209.5 235.993 208.7C236.66 207.833 237.46 207.167 238.393 206.7C239.327 206.167 240.06 205.9 240.593 205.9C241.327 205.9 241.827 206.067 242.093 206.4C242.293 206.667 242.393 206.967 242.393 207.3C242.393 207.833 242.093 208.267 241.493 208.6C240.827 208.933 240.293 209.1 239.893 209.1C239.427 209.1 239.027 208.967 238.693 208.7C238.293 208.367 238.093 208.2 238.093 208.2C237.76 208.267 237.293 208.633 236.693 209.3C236.093 209.967 235.793 210.7 235.793 211.5C235.793 212.3 236.227 213.067 237.093 213.8C237.96 214.533 239.36 214.9 241.293 214.9C243.293 214.9 245.193 214.233 246.993 212.9C248.86 211.567 250.393 209.867 251.593 207.8C252.793 205.733 253.393 203.633 253.393 201.5C253.393 200.767 253.393 199.8 253.393 198.6C253.393 197.333 253.393 196.3 253.393 195.5C253.393 194.5 253.56 193.367 253.893 192.1C254.227 190.767 254.593 189.533 254.993 188.4C255.46 187.267 255.827 186.567 256.093 186.3C256.627 185.833 257.027 185.7 257.293 185.9C257.56 186.1 257.627 186.3 257.493 186.5C257.427 186.567 256.993 187.1 256.193 188.1C255.393 189.033 254.393 190.2 253.193 191.6C251.993 193 250.793 194.4 249.593 195.8C248.393 197.2 247.327 198.433 246.393 199.5C245.527 200.567 245.027 201.2 244.893 201.4C244.56 201.867 244.26 201.967 243.993 201.7C243.727 201.433 243.793 201.1 244.193 200.7C244.927 199.767 245.827 198.667 246.893 197.4C248.027 196.067 249.16 194.767 250.293 193.5C251.427 192.233 252.393 191.167 253.193 190.3C254.06 189.367 254.527 188.833 254.593 188.7C254.793 188.433 254.96 187.967 255.093 187.3C255.293 186.633 255.527 186 255.793 185.4C256.127 184.8 256.527 184.5 256.993 184.5C258.127 184.5 258.693 184.9 258.693 185.7C258.693 186.3 258.227 187.033 257.293 187.9C256.427 188.767 255.927 189.467 255.793 190C255.593 190.8 255.593 191.933 255.793 193.4C256.06 194.8 256.327 196.4 256.593 198.2C256.927 200 257.093 201.9 257.093 203.9C257.093 206.567 256.56 208.733 255.493 210.4C254.427 212 253.093 213.233 251.493 214.1C249.893 214.967 248.227 215.533 246.493 215.8C244.827 216.133 243.327 216.3 241.993 216.3ZM257.393 209.4C255.66 209.4 254.527 209.067 253.993 208.4C253.527 207.733 253.36 206.967 253.493 206.1C253.693 205.167 253.927 204.333 254.193 203.6L255.193 203.7C254.993 204.367 254.793 205.067 254.593 205.8C254.46 206.533 254.56 207.167 254.893 207.7C255.227 208.233 256.093 208.5 257.493 208.5C258.493 208.5 259.627 208.033 260.893 207.1C262.16 206.167 263.393 205.033 264.593 203.7C265.86 202.367 266.927 201.067 267.793 199.8L268.693 200.5C267.827 201.567 266.76 202.8 265.493 204.2C264.293 205.6 262.993 206.833 261.593 207.9C260.193 208.9 258.793 209.4 257.393 209.4ZM287.852 170.8C288.452 171.067 289.319 171.2 290.452 171.2C291.652 171.133 292.585 171.033 293.252 170.9C291.119 173.833 288.752 177.067 286.152 180.6C283.552 184.133 280.919 187.667 278.252 191.2C275.652 194.667 273.219 197.933 270.952 201C268.752 204 266.985 206.533 265.652 208.6C264.319 210.667 263.652 211.967 263.652 212.5C263.652 212.9 263.885 213.2 264.352 213.4C264.752 213.6 265.285 213.7 265.952 213.7C267.419 213.7 269.019 213.2 270.752 212.2C272.552 211.133 274.319 209.833 276.052 208.3C277.852 206.7 279.485 205.1 280.952 203.5C282.485 201.833 283.685 200.4 284.552 199.2L285.352 199.8C284.419 201 283.185 202.433 281.652 204.1C280.119 205.767 278.419 207.433 276.552 209.1C274.685 210.767 272.752 212.167 270.752 213.3C268.819 214.367 266.952 214.9 265.152 214.9C263.885 214.9 262.885 214.633 262.152 214.1C261.352 213.633 260.952 212.8 260.952 211.6C260.952 210.533 261.585 208.9 262.852 206.7C264.119 204.433 265.752 201.833 267.752 198.9C269.819 195.967 272.052 192.867 274.452 189.6C276.852 186.267 279.219 183 281.552 179.8C283.952 176.533 286.052 173.533 287.852 170.8ZM276.852 182C276.185 182 275.852 181.8 275.852 181.4C275.852 181.067 276.185 180.9 276.852 180.9H295.852C296.052 180.9 296.252 180.933 296.452 181C296.719 181.067 296.852 181.2 296.852 181.4C296.852 181.667 296.719 181.833 296.452 181.9C296.252 181.967 296.052 182 295.852 182H276.852ZM306.154 196.5C305.887 197.033 305.487 197.5 304.954 197.9C304.487 198.3 304.12 198.567 303.854 198.7C303.654 198.767 303.72 198.567 304.054 198.1C305.254 196.633 306.02 195.267 306.354 194C306.754 192.733 306.754 191.733 306.354 191C306.02 190.2 305.354 189.8 304.354 189.8C303.02 189.8 301.454 190.333 299.654 191.4C297.854 192.467 295.987 193.867 294.054 195.6C292.187 197.333 290.42 199.2 288.754 201.2C287.154 203.133 285.854 205.033 284.854 206.9C283.854 208.7 283.354 210.267 283.354 211.6C283.354 212.6 283.554 213.233 283.954 213.5C284.354 213.767 284.754 213.9 285.154 213.9C286.687 213.9 288.454 213.2 290.454 211.8C292.52 210.333 294.62 208.5 296.754 206.3C298.887 204.1 300.92 201.867 302.854 199.6C304.787 197.267 306.454 195.167 307.854 193.3C309.32 191.433 310.32 190.167 310.854 189.5C311.587 189.767 312.454 189.867 313.454 189.8C314.52 189.733 315.42 189.667 316.154 189.6C316.02 189.8 315.32 190.633 314.054 192.1C312.854 193.567 311.387 195.333 309.654 197.4C307.987 199.4 306.287 201.467 304.554 203.6C302.887 205.733 301.487 207.6 300.354 209.2C299.22 210.8 298.654 211.867 298.654 212.4C298.654 213.067 298.787 213.5 299.054 213.7C299.387 213.833 299.887 213.9 300.554 213.9C301.354 213.833 302.52 213.467 304.054 212.8C305.587 212.067 307.554 210.667 309.954 208.6C312.354 206.533 315.254 203.467 318.654 199.4C318.654 199.4 318.787 199.5 319.054 199.7C319.387 199.9 319.554 200 319.554 200C315.554 204.667 311.854 208.333 308.454 211C305.054 213.6 301.954 214.9 299.154 214.9C297.687 214.9 296.687 214.667 296.154 214.2C295.687 213.733 295.454 213.067 295.454 212.2C295.454 211.533 295.72 210.733 296.254 209.8C296.854 208.8 297.52 207.833 298.254 206.9C298.987 205.967 299.587 205.233 300.054 204.7C300.054 204.7 299.987 204.667 299.854 204.6C299.72 204.533 299.654 204.5 299.654 204.5C298.12 206.367 296.487 208.1 294.754 209.7C293.02 211.3 291.287 212.567 289.554 213.5C287.887 214.433 286.254 214.9 284.654 214.9C282.987 214.9 281.82 214.5 281.154 213.7C280.487 212.833 280.154 211.533 280.154 209.8C280.154 208.133 280.687 206.133 281.754 203.8C282.82 201.4 284.354 199.067 286.354 196.8C288.354 194.467 290.754 192.533 293.554 191C296.42 189.467 299.62 188.7 303.154 188.7C304.887 188.7 306.087 189.033 306.754 189.7C307.42 190.3 307.72 191.033 307.654 191.9C307.587 192.767 307.387 193.633 307.054 194.5C306.72 195.367 306.42 196.033 306.154 196.5ZM350.631 153.4C351.364 153.533 352.264 153.6 353.331 153.6C354.464 153.6 355.364 153.533 356.031 153.4L321.231 201.9C320.164 203.5 319.131 205 318.131 206.4C317.131 207.8 316.331 209.033 315.731 210.1C315.064 211.1 314.731 211.9 314.731 212.5C314.731 212.967 314.931 213.3 315.331 213.5C315.664 213.7 316.164 213.8 316.831 213.8C318.364 213.8 320.064 213.267 321.931 212.2C323.798 211.067 325.631 209.667 327.431 208C329.298 206.333 330.998 204.7 332.531 203.1C334.131 201.5 335.398 200.2 336.331 199.2L337.031 199.8C336.164 200.733 334.964 202.033 333.431 203.7C331.898 205.367 330.131 207.067 328.131 208.8C326.198 210.467 324.164 211.9 322.031 213.1C319.964 214.3 317.931 214.9 315.931 214.9C314.864 214.9 313.964 214.6 313.231 214C312.431 213.4 312.031 212.533 312.031 211.4C312.031 210.667 312.298 209.733 312.831 208.6C313.364 207.467 314.031 206.3 314.831 205.1C315.564 203.833 316.298 202.7 317.031 201.7C317.698 200.633 318.231 199.833 318.631 199.3L350.631 153.4Z" fill="#7F9B7D"/>
<path d="M66.8719 146.8L67.2719 138.2C72.8719 138.467 79.2719 138.667 86.4719 138.8C93.6719 138.8 100.605 138.8 107.272 138.8C110.739 138.8 114.472 138.8 118.472 138.8C122.605 138.8 126.472 138.733 130.072 138.6C133.672 138.467 136.472 138.333 138.472 138.2L137.872 147.8C133.739 147.133 129.005 146.733 123.672 146.6C118.472 146.467 113.405 146.4 108.472 146.4C109.005 148.533 109.405 150.667 109.672 152.8C110.072 154.8 110.272 156.867 110.272 159C110.272 165.667 108.805 172 105.872 178C103.072 184 99.6052 189.667 95.4719 195L96.0719 195.6C98.7385 198.4 101.872 201.067 105.472 203.6C109.205 206.133 113.072 207.4 117.072 207.4C121.872 207.4 125.739 206.067 128.672 203.4C131.739 200.6 134.205 197.133 136.072 193C137.939 188.733 139.339 184.467 140.272 180.2L144.472 181.2C143.672 185.6 142.472 190.133 140.872 194.8C139.272 199.333 137.139 203.533 134.472 207.4C131.939 211.267 128.739 214.4 124.872 216.8C121.005 219.067 116.339 220.2 110.872 220.2C105.939 220.2 101.205 219.067 96.6719 216.8C92.2719 214.533 88.3385 211.733 84.8719 208.4L83.8719 207.6C79.8719 210.8 75.2052 213.6 69.8719 216C64.6719 218.4 59.1385 219.6 53.2719 219.6C47.2719 219.6 41.2719 218.867 35.2719 217.4C29.2719 215.8 24.1385 212.867 19.8719 208.6C16.0052 204.733 12.9385 200.2 10.6719 195C8.53854 189.8 7.47188 184.467 7.47188 179C7.47188 172.867 8.53854 167.667 10.6719 163.4C12.9385 159 16.4052 154.933 21.0719 151.2C25.7385 147.333 31.7385 143.133 39.0719 138.6C37.4719 134.733 36.2052 130.733 35.2719 126.6C34.3385 122.333 33.8719 118.133 33.8719 114C33.8719 107.867 35.1385 102.133 37.6719 96.8C40.3385 91.3333 44.0719 86.9333 48.8719 83.6C53.8052 80.1333 59.6719 78.4 66.4719 78.4C69.8052 78.4 73.0052 79.2 76.0719 80.8C79.2719 82.2667 81.8719 84.4 83.8719 87.2C85.8719 89.8667 86.8719 93.0667 86.8719 96.8C86.8719 101.2 86.1385 105.267 84.6719 109C83.2052 112.6 80.8052 115.933 77.4719 119C75.4719 120.867 72.7385 122.933 69.2719 125.2C65.9385 127.467 62.7385 129.533 59.6719 131.4C56.6052 133.133 54.4719 134.267 53.2719 134.8C62.7385 155.733 75.8052 174.733 92.4719 191.8C95.1385 187.933 97.0719 183.667 98.2719 179C99.4719 174.333 100.072 169.6 100.072 164.8C100.072 161.733 99.4052 158.867 98.0719 156.2C96.7385 153.533 95.0052 151.133 92.8719 149C91.2719 147.4 89.4052 146.467 87.2719 146.2C85.1385 145.933 82.9385 145.8 80.6719 145.8C78.4052 145.8 76.0719 145.933 73.6719 146.2C71.4052 146.333 69.1385 146.533 66.8719 146.8ZM51.6719 131C57.2719 127.533 61.5385 124.4 64.4719 121.6C67.5385 118.8 69.6052 115.867 70.6719 112.8C71.8719 109.6 72.4719 105.867 72.4719 101.6C72.4719 99.2 71.8052 96.8 70.4719 94.4C69.1385 91.8667 67.4052 89.7333 65.2719 88C63.2719 86.2667 61.2052 85.4 59.0719 85.4C55.0719 85.4 52.1385 86.5333 50.2719 88.8C48.5385 90.9333 47.4052 93.6 46.8719 96.8C46.3385 100 46.0719 103.133 46.0719 106.2C46.0719 110.467 46.5385 114.667 47.4719 118.8C48.5385 122.933 49.9385 127 51.6719 131ZM80.8719 204.4C72.8719 195.467 65.3385 185.733 58.2719 175.2C51.3385 164.533 45.5385 153.733 40.8719 142.8C34.0719 147.333 29.4052 152.2 26.8719 157.4C24.3385 162.467 23.0719 168.133 23.0719 174.4C23.0719 180.533 24.4719 186.467 27.2719 192.2C30.0719 197.933 33.9385 202.667 38.8719 206.4C43.9385 210 49.7385 211.8 56.2719 211.8C66.5385 211.8 74.7385 209.333 80.8719 204.4Z" fill="#7F9B7D"/>
</svg>
